<svg width="1231" height="349" viewBox="0 0 1231 349" fill="none" xmlns="http://www.w3.org/2000/svg">
<path opacity="0.15" d="M1021.5 311.136C1021.5 311.465 1020.97 311.791 1019.96 312.095C1018.94 312.399 1017.45 312.675 1015.57 312.908C1013.69 313.141 1011.45 313.325 1009 313.451C1006.54 313.577 1003.91 313.642 1001.25 313.642C998.589 313.642 995.955 313.577 993.498 313.451C991.042 313.325 988.809 313.141 986.929 312.908C985.049 312.675 983.557 312.399 982.539 312.095C981.522 311.791 980.998 311.465 980.998 311.136C980.998 310.807 981.522 310.481 982.539 310.177C983.557 309.873 985.049 309.597 986.929 309.364C988.809 309.132 991.042 308.947 993.498 308.821C995.955 308.695 998.589 308.63 1001.25 308.63C1003.91 308.63 1006.54 308.695 1009 308.821C1011.45 308.947 1013.69 309.132 1015.57 309.364C1017.45 309.597 1018.94 309.873 1019.96 310.177C1020.97 310.481 1021.5 310.807 1021.5 311.136Z" fill="black"/>
<path d="M1048.23 249.189C1048.26 248.847 1048.19 248.502 1048.01 248.203C1047.84 247.904 1047.58 247.665 1047.27 247.519C1042.42 245.314 1021.63 237.061 1003.02 248.889C989.165 257.643 981.639 260.7 977.994 261.769C977.725 261.862 977.483 262.021 977.293 262.231C977.102 262.442 976.968 262.697 976.904 262.972C976.84 263.247 976.848 263.534 976.926 263.806C977.005 264.078 977.152 264.325 977.353 264.526C982.955 270.223 999.881 284.256 1022.24 277.69C1044.6 271.125 1047.74 253.834 1048.23 249.189Z" fill="#50C800"/>
<path d="M1003.02 255.588C991.933 262.621 984.862 265.979 980.61 267.566C979.26 266.43 978.146 265.378 977.235 264.526C977.034 264.321 976.89 264.069 976.816 263.793C976.742 263.518 976.741 263.228 976.812 262.952C976.883 262.675 977.024 262.422 977.222 262.215C977.42 262.008 977.668 261.854 977.943 261.769C981.639 260.7 989.165 257.643 1003.02 248.889C1021.63 237.061 1042.42 245.314 1047.25 247.519C1047.56 247.665 1047.82 247.904 1048 248.203C1048.17 248.502 1048.24 248.847 1048.21 249.189C1048.03 250.886 1047.7 252.564 1047.22 254.201C1042.32 251.963 1021.6 243.777 1003.02 255.588Z" fill="#7AED24"/>
<path d="M1048.23 249.189C1048.26 248.847 1048.19 248.502 1048.01 248.203C1047.84 247.904 1047.58 247.665 1047.27 247.519C1042.42 245.314 1021.63 237.061 1003.02 248.889C989.165 257.643 981.639 260.7 977.994 261.769C977.725 261.862 977.483 262.021 977.293 262.231C977.102 262.442 976.968 262.697 976.904 262.972C976.84 263.247 976.848 263.534 976.926 263.806C977.005 264.078 977.152 264.325 977.353 264.526C982.955 270.223 999.881 284.256 1022.24 277.69C1044.6 271.125 1047.74 253.834 1048.23 249.189Z" stroke="black" stroke-linecap="round" stroke-linejoin="round"/>
<path d="M993.587 290.42C996.712 292.299 999.425 294.78 1001.56 297.716C1003.7 300.651 1005.23 303.982 1006.04 307.511C1006.12 307.924 1006.05 308.353 1005.83 308.713C1005.6 309.072 1005.25 309.335 1004.84 309.449C1001.31 310.363 997.62 310.563 994.004 310.039C990.387 309.514 986.914 308.275 983.791 306.396C980.668 304.517 977.958 302.035 975.823 299.098C973.688 296.161 972.171 292.83 971.362 289.301C971.278 288.89 971.352 288.463 971.571 288.104C971.79 287.745 972.137 287.48 972.543 287.363C976.079 286.45 979.764 286.25 983.379 286.776C986.994 287.301 990.465 288.54 993.587 290.42Z" fill="#50C800"/>
<path d="M1004.81 309.449H1004.59C1002.09 303.461 997.504 298.564 991.658 295.656C985.813 292.747 979.105 292.021 972.763 293.611C972.18 292.22 971.711 290.784 971.362 289.318C971.277 288.907 971.352 288.48 971.571 288.121C971.789 287.762 972.137 287.497 972.543 287.38C976.08 286.461 979.767 286.256 983.385 286.777C987.003 287.298 990.478 288.535 993.604 290.413C996.729 292.291 999.441 294.773 1001.58 297.711C1003.71 300.648 1005.23 303.981 1006.04 307.511C1006.12 307.929 1006.04 308.362 1005.81 308.722C1005.58 309.082 1005.22 309.342 1004.81 309.449Z" fill="#7AED24"/>
<path d="M993.587 290.42C996.712 292.299 999.425 294.78 1001.56 297.716C1003.7 300.651 1005.23 303.982 1006.04 307.511C1006.12 307.924 1006.05 308.353 1005.83 308.713C1005.6 309.072 1005.25 309.335 1004.84 309.449C1001.31 310.363 997.62 310.563 994.004 310.039C990.387 309.514 986.914 308.275 983.791 306.396C980.668 304.517 977.958 302.035 975.823 299.098C973.688 296.161 972.171 292.83 971.362 289.301C971.278 288.89 971.352 288.463 971.571 288.104C971.79 287.745 972.137 287.48 972.543 287.363C976.079 286.45 979.764 286.25 983.379 286.776C986.994 287.301 990.465 288.54 993.587 290.42Z" stroke="black" stroke-linecap="round" stroke-linejoin="round"/>
<path d="M971.463 288.249C975.046 288.385 978.561 289.253 981.787 290.8C985.014 292.347 987.882 294.538 990.211 297.237M1048.14 248.504C1038.29 248.204 1025.23 250.526 1016.08 256.006" stroke="black" stroke-linecap="round" stroke-linejoin="round"/>
<path opacity="0.15" d="M196.333 311.136C196.333 311.465 196.857 311.791 197.874 312.095C198.892 312.399 200.383 312.675 202.264 312.908C204.144 313.141 206.377 313.325 208.833 313.451C211.29 313.577 213.923 313.642 216.583 313.642C219.242 313.642 221.875 313.577 224.332 313.451C226.789 313.325 229.021 313.141 230.902 312.908C232.782 312.675 234.274 312.399 235.291 312.095C236.309 311.791 236.833 311.465 236.833 311.136C236.833 310.807 236.309 310.481 235.291 310.177C234.274 309.873 232.782 309.597 230.902 309.364C229.021 309.132 226.789 308.947 224.332 308.821C221.875 308.695 219.242 308.63 216.583 308.63C213.923 308.63 211.29 308.695 208.833 308.821C206.377 308.947 204.144 309.132 202.264 309.364C200.383 309.597 198.892 309.873 197.874 310.177C196.857 310.481 196.333 310.807 196.333 311.136Z" fill="black"/>
<path d="M169.603 249.189C169.57 248.847 169.644 248.502 169.817 248.203C169.989 247.904 170.25 247.665 170.565 247.519C175.408 245.314 196.198 237.061 214.811 248.889C228.665 257.643 236.192 260.7 239.837 261.769C240.106 261.862 240.348 262.021 240.538 262.231C240.729 262.442 240.862 262.697 240.926 262.972C240.991 263.247 240.983 263.534 240.905 263.806C240.826 264.078 240.679 264.325 240.478 264.526C234.875 270.223 217.95 284.256 195.59 277.69C173.231 271.125 170.092 253.834 169.603 249.189Z" fill="#50C800"/>
<path d="M214.811 255.588C225.898 262.621 232.968 265.979 237.221 267.566C238.571 266.43 239.685 265.378 240.596 264.526C240.796 264.321 240.94 264.069 241.014 263.793C241.088 263.518 241.09 263.228 241.019 262.952C240.948 262.675 240.807 262.422 240.608 262.215C240.41 262.008 240.162 261.854 239.887 261.769C236.192 260.7 228.665 257.643 214.811 248.889C196.198 237.061 175.408 245.314 170.582 247.519C170.267 247.665 170.006 247.904 169.834 248.203C169.661 248.502 169.587 248.847 169.62 249.189C169.797 250.886 170.13 252.564 170.615 254.201C175.509 251.963 196.232 243.777 214.811 255.588Z" fill="#7AED24"/>
<path d="M169.603 249.189C169.57 248.847 169.644 248.502 169.817 248.203C169.989 247.904 170.25 247.665 170.565 247.519C175.408 245.314 196.198 237.061 214.811 248.889C228.665 257.643 236.192 260.7 239.837 261.769C240.106 261.862 240.348 262.021 240.538 262.231C240.729 262.442 240.862 262.697 240.926 262.972C240.991 263.247 240.983 263.534 240.905 263.806C240.826 264.078 240.679 264.325 240.478 264.526C234.875 270.223 217.95 284.256 195.59 277.69C173.231 271.125 170.092 253.834 169.603 249.189Z" stroke="black" stroke-linecap="round" stroke-linejoin="round"/>
<path d="M224.244 290.42C221.119 292.299 218.406 294.78 216.267 297.716C214.127 300.651 212.605 303.982 211.79 307.511C211.706 307.924 211.783 308.353 212.005 308.713C212.227 309.072 212.579 309.335 212.988 309.449C216.525 310.363 220.211 310.563 223.827 310.039C227.443 309.514 230.916 308.275 234.039 306.396C237.162 304.517 239.872 302.035 242.007 299.098C244.142 296.161 245.66 292.83 246.468 289.301C246.553 288.89 246.479 288.463 246.26 288.104C246.041 287.745 245.694 287.48 245.287 287.363C241.752 286.45 238.067 286.25 234.452 286.776C230.837 287.301 227.365 288.54 224.244 290.42Z" fill="#50C800"/>
<path d="M213.022 309.449H213.241C215.736 303.461 220.327 298.564 226.172 295.656C232.017 292.747 238.726 292.021 245.068 293.611C245.651 292.22 246.119 290.784 246.468 289.318C246.553 288.907 246.479 288.48 246.26 288.121C246.041 287.762 245.694 287.497 245.287 287.38C241.751 286.461 238.064 286.256 234.445 286.777C230.827 287.298 227.352 288.535 224.227 290.413C221.101 292.291 218.389 294.773 216.253 297.711C214.116 300.648 212.599 303.981 211.79 307.511C211.708 307.929 211.789 308.362 212.018 308.722C212.247 309.082 212.606 309.342 213.022 309.449Z" fill="#7AED24"/>
<path d="M224.244 290.42C221.119 292.299 218.406 294.78 216.267 297.716C214.127 300.651 212.605 303.982 211.79 307.511C211.706 307.924 211.783 308.353 212.005 308.713C212.227 309.072 212.579 309.335 212.988 309.449C216.525 310.363 220.211 310.563 223.827 310.039C227.443 309.514 230.916 308.275 234.039 306.396C237.162 304.517 239.872 302.035 242.007 299.098C244.142 296.161 245.66 292.83 246.468 289.301C246.553 288.89 246.479 288.463 246.26 288.104C246.041 287.745 245.694 287.48 245.287 287.363C241.752 286.45 238.067 286.25 234.452 286.776C230.837 287.301 227.365 288.54 224.244 290.42Z" stroke="black" stroke-linecap="round" stroke-linejoin="round"/>
<path d="M246.367 288.249C242.785 288.385 239.27 289.253 236.043 290.8C232.816 292.347 229.948 294.538 227.619 297.237M169.687 248.504C179.542 248.204 192.604 250.526 201.75 256.006" stroke="black" stroke-linecap="round" stroke-linejoin="round"/>
<path d="M321.862 265.78H298.662C289.262 265.78 283.128 263.813 280.262 259.88C279.795 259.213 279.428 258.313 279.162 257.18C281.962 257.58 284.162 257.847 285.762 257.98C290.695 258.513 294.628 258.78 297.562 258.78C299.162 258.78 302.895 258.613 308.762 258.28C314.695 257.947 320.462 257.58 326.062 257.18L330.962 265.78V304.18C330.962 307.247 332.562 310.68 335.762 314.48C338.628 317.88 342.028 321.18 345.962 324.38L342.762 324.58C341.295 324.58 337.628 322.247 331.762 317.58C325.228 312.38 321.962 308.013 321.962 304.48L322.062 296.18C319.395 298.113 316.962 299.447 314.762 300.18C312.562 300.913 309.995 301.28 307.062 301.28C301.528 301.28 296.995 299.313 293.462 295.38C290.262 291.847 288.662 287.813 288.662 283.28C288.662 279.747 290.095 276.713 292.962 274.18C296.095 271.447 300.128 270.08 305.062 270.08C308.928 270.08 312.062 270.713 314.462 271.98C316.928 273.18 319.228 275.38 321.362 278.58H321.862V265.78ZM301.362 280.08C299.828 280.813 298.495 282.047 297.362 283.78C296.228 285.513 295.662 287.113 295.662 288.58C295.662 290.447 296.262 291.98 297.462 293.18C298.728 294.313 300.628 294.88 303.162 294.88C305.162 294.88 307.195 294.447 309.262 293.58L301.362 280.08ZM313.362 291.38C315.028 290.447 316.362 289.213 317.362 287.68C318.362 286.147 318.862 284.58 318.862 282.98C318.862 281.313 318.128 279.913 316.662 278.78C315.195 277.647 313.362 277.08 311.162 277.08C310.562 277.08 309.628 277.18 308.362 277.38C307.095 277.58 306.162 277.813 305.562 278.08L313.362 291.38ZM317.608 316.48C320.608 313.28 323.908 311.68 327.508 311.68C330.641 311.68 333.441 312.88 335.908 315.28C338.308 317.747 339.508 320.413 339.508 323.28C339.508 326.013 338.341 328.48 336.008 330.68C333.608 332.947 330.541 334.08 326.808 334.08C322.808 334.08 318.541 332.813 314.008 330.28C309.475 327.813 304.708 324.313 299.708 319.78L302.608 316.88C306.208 320.48 309.841 323.313 313.508 325.38C317.175 327.447 320.175 328.48 322.508 328.48C325.508 328.48 328.241 327.48 330.708 325.48C332.841 323.747 333.908 322.047 333.908 320.38C333.908 317.913 333.241 316.68 331.908 316.68C331.241 316.68 330.141 317.28 328.608 318.48C327.408 319.48 325.975 320.847 324.308 322.58L317.608 316.48ZM377.384 279.38C377.384 280.847 372.251 282.747 361.984 285.08C357.184 286.147 353.884 287.38 352.084 288.78C350.351 290.18 349.484 292.347 349.484 295.28C349.484 297.347 350.451 299.18 352.384 300.78C354.384 302.313 356.684 303.08 359.284 303.08C361.884 303.08 364.984 302.247 368.584 300.58C371.584 299.18 374.751 297.28 378.084 294.88L382.584 303.68C380.251 305.48 377.551 307.013 374.484 308.28C371.484 309.48 368.718 310.08 366.184 310.08C359.784 310.08 354.118 307.947 349.184 303.68C344.318 299.347 341.884 294.547 341.884 289.28C341.884 286.213 342.718 283.747 344.384 281.88C346.518 279.48 349.884 277.88 354.484 277.08C359.151 276.213 362.584 275.38 364.784 274.58C367.051 273.78 368.184 272.78 368.184 271.58V265.98C364.784 265.913 361.318 265.88 357.784 265.88C354.318 265.813 352.351 265.78 351.884 265.78C342.484 265.78 336.351 263.813 333.484 259.88C333.018 259.213 332.651 258.313 332.384 257.18C335.184 257.58 337.384 257.847 338.984 257.98C343.918 258.513 347.851 258.78 350.784 258.78C353.318 258.78 356.584 258.647 360.584 258.38C364.584 258.047 368.451 257.68 372.184 257.28L377.384 265.78V279.38ZM415.777 265.78H393.877C384.477 265.78 378.343 263.813 375.477 259.88C375.01 259.213 374.643 258.313 374.377 257.18C377.177 257.58 379.377 257.847 380.977 257.98C385.91 258.513 389.843 258.78 392.777 258.78C394.443 258.78 398.077 258.613 403.677 258.28C409.343 257.947 414.81 257.58 420.077 257.18L424.977 265.58V304.18C424.977 307.247 426.577 310.68 429.777 314.48C432.643 317.88 436.043 321.18 439.977 324.38L436.777 324.58C435.31 324.58 431.61 322.247 425.677 317.58C419.077 312.38 415.777 308.013 415.777 304.48V295.48C410.643 299.28 406.11 301.18 402.177 301.18C397.643 301.18 393.443 299.313 389.577 295.58C385.777 291.78 383.877 287.847 383.877 283.78C383.877 280.113 385.41 277.013 388.477 274.48C391.61 271.88 395.51 270.58 400.177 270.58C401.843 270.58 403.377 270.747 404.777 271.08C406.177 271.347 407.31 271.78 408.177 272.38C409.043 272.98 410.21 273.98 411.677 275.38C413.21 276.713 414.577 278.08 415.777 279.48V265.78ZM397.477 294.18C399.343 294.18 402.21 293.247 406.077 291.38C409.943 289.447 413.21 287.547 415.877 285.68V284.48C411.677 280.813 406.977 278.98 401.777 278.98C399.11 278.98 396.877 279.947 395.077 281.88C393.343 283.747 392.477 286.047 392.477 288.78C392.477 290.447 392.943 291.78 393.877 292.78C394.877 293.713 396.077 294.18 397.477 294.18ZM477.158 265.78H444.658C435.258 265.78 429.125 263.813 426.258 259.88C425.791 259.213 425.425 258.313 425.158 257.18C427.958 257.58 430.158 257.847 431.758 257.98C436.691 258.513 440.625 258.78 443.558 258.78C447.025 258.78 454.191 258.513 465.058 257.98C470.458 257.713 475.825 257.447 481.158 257.18L486.558 265.78V304.18C486.558 307.247 488.158 310.68 491.358 314.48C494.225 317.88 497.558 321.18 501.358 324.38L498.158 324.58C496.691 324.58 493.025 322.247 487.158 317.58C480.625 312.38 477.358 308.013 477.358 304.48V281.28C476.691 281.08 475.958 280.98 475.158 280.98C472.491 280.98 470.025 281.947 467.758 283.88C465.558 285.813 463.725 288.847 462.258 292.98L454.758 287.98C454.891 287.38 455.158 286.547 455.558 285.48C456.025 284.413 456.425 283.547 456.758 282.88C455.425 280.747 453.391 279.68 450.658 279.68C448.325 279.68 446.391 280.613 444.858 282.48C443.391 284.28 442.658 286.513 442.658 289.18C442.658 292.18 443.758 295.313 445.958 298.58C447.891 301.447 450.891 304.78 454.958 308.58L452.058 311.48C445.591 305.547 440.991 300.38 438.258 295.98C435.858 292.113 434.658 288.447 434.658 284.98C434.658 281.247 435.891 278.047 438.358 275.38C440.891 272.647 443.791 271.28 447.058 271.28C450.991 271.28 454.991 273.98 459.058 279.38C460.525 277.447 462.091 275.98 463.758 274.98C465.491 273.913 467.091 273.38 468.558 273.38C469.758 273.38 471.258 273.78 473.058 274.58C474.858 275.38 476.225 276.247 477.158 277.18V265.78ZM533.584 297.58L522.384 324.48H516.284L523.584 297.58H533.584ZM603.308 257.18C604.508 257.513 605.775 257.813 607.108 258.08C608.441 258.28 610.275 258.38 612.608 258.38C614.675 258.38 616.375 258.28 617.708 258.08C619.041 257.813 619.975 257.513 620.508 257.18L625.608 265.78H618.208C613.741 265.78 609.908 264.347 606.708 261.48C605.708 260.547 604.575 259.113 603.308 257.18ZM603.708 265.78V280.68C604.708 279.68 606.275 278.747 608.408 277.88C610.608 277.013 612.341 276.58 613.608 276.58C617.075 276.58 620.208 278.247 623.008 281.58C625.875 284.913 627.308 288.847 627.308 293.38C627.308 297.113 626.241 300.28 624.108 302.88C622.641 304.613 620.975 305.813 619.108 306.48C617.708 306.48 616.275 306.047 614.808 305.18C613.341 304.313 612.608 303.38 612.608 302.38C614.275 300.513 615.975 298.613 617.708 296.68C619.175 294.08 619.908 290.947 619.908 287.28C619.908 286.413 619.608 285.68 619.008 285.08C618.408 284.48 617.708 284.18 616.908 284.18C615.375 284.18 612.775 285.113 609.108 286.98C605.508 288.847 603.708 290.447 603.708 291.78L603.608 304.18C603.608 307.247 605.241 310.68 608.508 314.48C611.441 317.88 614.875 321.18 618.808 324.38L615.608 324.58C610.808 321.913 607.208 319.713 604.808 317.98C597.608 312.713 594.008 307.947 594.008 303.68L594.108 296.98C592.708 298.247 591.075 299.347 589.208 300.28C587.341 301.147 585.641 301.58 584.108 301.58C579.908 301.58 575.808 299.847 571.808 296.38C567.875 292.847 565.908 289.213 565.908 285.48C565.908 281.68 567.275 278.447 570.008 275.78C572.741 273.113 576.308 271.78 580.708 271.78C581.908 271.78 583.241 271.947 584.708 272.28C586.241 272.613 587.441 273.08 588.308 273.68C589.175 274.28 590.108 275.18 591.108 276.38C592.108 277.513 593.241 279.213 594.508 281.48V265.78H582.508C574.441 265.78 568.008 264.847 563.208 262.98C560.341 261.913 557.975 259.98 556.108 257.18C559.241 257.513 561.608 257.747 563.208 257.88C568.075 258.347 570.975 258.58 571.908 258.58C576.308 258.58 582.108 258.347 589.308 257.88C591.641 257.747 594.775 257.513 598.708 257.18L603.708 265.78ZM594.608 286.58C593.141 284.513 591.375 282.947 589.308 281.88C587.308 280.747 585.441 280.18 583.708 280.18C581.308 280.18 579.175 281.18 577.308 283.18C575.441 285.18 574.508 287.347 574.508 289.68C574.508 291.347 574.875 292.68 575.608 293.68C576.408 294.68 577.308 295.18 578.308 295.18C579.641 295.18 582.408 294.013 586.608 291.68C590.408 289.613 593.075 287.913 594.608 286.58ZM637.566 304.18C637.566 307.247 639.166 310.68 642.366 314.48C645.233 317.88 648.566 321.18 652.366 324.38L649.566 324.58C648.1 324.58 644.4 322.247 638.466 317.58C631.8 312.38 628.466 308.013 628.466 304.48V265.78C623.333 264.78 619.6 262.613 617.266 259.28C616.933 258.747 616.566 258.047 616.166 257.18C617.166 257.447 617.933 257.613 618.466 257.68C621.6 258.213 624.133 258.48 626.066 258.48C626.933 258.48 628 258.347 629.266 258.08C630.533 257.813 631.666 257.513 632.666 257.18L637.566 265.78V304.18ZM651.813 258.58L651.313 257.28C650.78 256.08 650.247 254.88 649.713 253.68C648.713 251.213 648.213 249.013 648.213 247.08C648.213 243.48 649.48 240.647 652.013 238.58C654.613 236.447 658.013 235.38 662.213 235.38C666.147 235.38 671.213 237.247 677.413 240.98C682.613 244.113 686.88 247.413 690.213 250.88L688.313 254.18C684.78 251.047 681.147 248.513 677.413 246.58C673.28 244.447 669.513 243.38 666.113 243.38C662.78 243.38 660.247 244.38 658.513 246.38C656.847 248.313 656.013 250.913 656.013 254.18L656.113 258.28C656.18 258.347 656.947 259.613 658.413 262.08C658.88 262.88 659.58 264.08 660.513 265.68V304.18C660.513 307.247 662.113 310.68 665.313 314.48C668.18 317.88 671.513 321.18 675.313 324.38L672.513 324.58C671.047 324.58 667.347 322.247 661.413 317.58C654.747 312.38 651.413 308.013 651.413 304.48L651.513 265.78C646.38 264.78 642.647 262.613 640.313 259.28C639.98 258.747 639.613 258.047 639.213 257.18C640.213 257.447 640.98 257.613 641.513 257.68C644.647 258.213 647.18 258.48 649.113 258.48L651.813 258.58ZM714.756 265.78H682.256C672.856 265.78 666.722 263.813 663.856 259.88C663.389 259.213 663.022 258.313 662.756 257.18C665.556 257.58 667.756 257.847 669.356 257.98C674.289 258.513 678.222 258.78 681.156 258.78C684.622 258.78 691.789 258.513 702.656 257.98C708.056 257.713 713.422 257.447 718.756 257.18L724.156 265.78V304.18C724.156 307.247 725.756 310.68 728.956 314.48C731.822 317.88 735.156 321.18 738.956 324.38L735.756 324.58C734.289 324.58 730.622 322.247 724.756 317.58C718.222 312.38 714.956 308.013 714.956 304.48V281.28C714.289 281.08 713.556 280.98 712.756 280.98C710.089 280.98 707.622 281.947 705.356 283.88C703.156 285.813 701.322 288.847 699.856 292.98L692.356 287.98C692.489 287.38 692.756 286.547 693.156 285.48C693.622 284.413 694.022 283.547 694.356 282.88C693.022 280.747 690.989 279.68 688.256 279.68C685.922 279.68 683.989 280.613 682.456 282.48C680.989 284.28 680.256 286.513 680.256 289.18C680.256 292.18 681.356 295.313 683.556 298.58C685.489 301.447 688.489 304.78 692.556 308.58L689.656 311.48C683.189 305.547 678.589 300.38 675.856 295.98C673.456 292.113 672.256 288.447 672.256 284.98C672.256 281.247 673.489 278.047 675.956 275.38C678.489 272.647 681.389 271.28 684.656 271.28C688.589 271.28 692.589 273.98 696.656 279.38C698.122 277.447 699.689 275.98 701.356 274.98C703.089 273.913 704.689 273.38 706.156 273.38C707.356 273.38 708.856 273.78 710.656 274.58C712.456 275.38 713.822 276.247 714.756 277.18V265.78ZM771.081 257.18C772.281 257.513 773.548 257.813 774.881 258.08C776.215 258.28 778.048 258.38 780.381 258.38C782.448 258.38 784.148 258.28 785.481 258.08C786.815 257.813 787.748 257.513 788.281 257.18L793.381 265.78H785.981C781.515 265.78 777.681 264.347 774.481 261.48C773.481 260.547 772.348 259.113 771.081 257.18ZM771.481 265.78V280.68C772.481 279.68 774.048 278.747 776.181 277.88C778.381 277.013 780.115 276.58 781.381 276.58C784.848 276.58 787.981 278.247 790.781 281.58C793.648 284.913 795.081 288.847 795.081 293.38C795.081 297.113 794.015 300.28 791.881 302.88C790.415 304.613 788.748 305.813 786.881 306.48C785.481 306.48 784.048 306.047 782.581 305.18C781.115 304.313 780.381 303.38 780.381 302.38C782.048 300.513 783.748 298.613 785.481 296.68C786.948 294.08 787.681 290.947 787.681 287.28C787.681 286.413 787.381 285.68 786.781 285.08C786.181 284.48 785.481 284.18 784.681 284.18C783.148 284.18 780.548 285.113 776.881 286.98C773.281 288.847 771.481 290.447 771.481 291.78L771.381 304.18C771.381 307.247 773.015 310.68 776.281 314.48C779.215 317.88 782.648 321.18 786.581 324.38L783.381 324.58C778.581 321.913 774.981 319.713 772.581 317.98C765.381 312.713 761.781 307.947 761.781 303.68L761.881 296.98C760.481 298.247 758.848 299.347 756.981 300.28C755.115 301.147 753.415 301.58 751.881 301.58C747.681 301.58 743.581 299.847 739.581 296.38C735.648 292.847 733.681 289.213 733.681 285.48C733.681 281.68 735.048 278.447 737.781 275.78C740.515 273.113 744.081 271.78 748.481 271.78C749.681 271.78 751.015 271.947 752.481 272.28C754.015 272.613 755.215 273.08 756.081 273.68C756.948 274.28 757.881 275.18 758.881 276.38C759.881 277.513 761.015 279.213 762.281 281.48V265.78H750.281C742.215 265.78 735.781 264.847 730.981 262.98C728.115 261.913 725.748 259.98 723.881 257.18C727.015 257.513 729.381 257.747 730.981 257.88C735.848 258.347 738.748 258.58 739.681 258.58C744.081 258.58 749.881 258.347 757.081 257.88C759.415 257.747 762.548 257.513 766.481 257.18L771.481 265.78ZM762.381 286.58C760.915 284.513 759.148 282.947 757.081 281.88C755.081 280.747 753.215 280.18 751.481 280.18C749.081 280.18 746.948 281.18 745.081 283.18C743.215 285.18 742.281 287.347 742.281 289.68C742.281 291.347 742.648 292.68 743.381 293.68C744.181 294.68 745.081 295.18 746.081 295.18C747.415 295.18 750.181 294.013 754.381 291.68C758.181 289.613 760.848 287.913 762.381 286.58ZM805.34 304.18C805.34 307.247 806.94 310.68 810.14 314.48C813.007 317.88 816.34 321.18 820.14 324.38L817.34 324.58C815.873 324.58 812.173 322.247 806.24 317.58C799.573 312.38 796.24 308.013 796.24 304.48V265.78C791.107 264.78 787.373 262.613 785.04 259.28C784.707 258.747 784.34 258.047 783.94 257.18C784.94 257.447 785.707 257.613 786.24 257.68C789.373 258.213 791.907 258.48 793.84 258.48C794.707 258.48 795.773 258.347 797.04 258.08C798.307 257.813 799.44 257.513 800.44 257.18L805.34 265.78V304.18ZM852.787 304.18C852.787 307.247 854.387 310.68 857.587 314.48C860.453 317.88 863.853 321.18 867.787 324.38L864.587 324.58C863.12 324.58 859.42 322.247 853.487 317.58C846.887 312.38 843.587 308.013 843.587 304.48V283.58H831.787C830.587 283.58 829.987 284.213 829.987 285.48V289.08C829.987 290.613 828.953 291.38 826.887 291.38C825.62 291.38 823.62 289.613 820.887 286.08C818.153 282.547 816.787 279.813 816.787 277.88C816.787 277.28 817.053 276.68 817.587 276.08C818.12 275.48 818.72 275.18 819.387 275.18H843.587V265.78H826.787C817.387 265.78 811.253 263.813 808.387 259.88C807.92 259.213 807.553 258.313 807.287 257.18C810.087 257.58 812.287 257.847 813.887 257.98C818.82 258.513 822.753 258.78 825.687 258.78C827.553 258.78 830.687 258.613 835.087 258.28C839.553 257.947 843.753 257.58 847.687 257.18L852.687 265.78L852.787 304.18ZM852.792 257.28C854.592 257.613 856.026 257.847 857.092 257.98C860.159 258.38 862.592 258.58 864.392 258.58C866.259 258.58 868.026 258.447 869.692 258.18C871.426 257.847 873.059 257.513 874.592 257.18C875.459 258.58 876.126 259.647 876.592 260.38C877.992 262.647 879.026 264.447 879.692 265.78V290.78C879.692 293.847 878.626 295.38 876.492 295.38C875.426 295.38 872.892 293.78 868.892 290.58C864.559 287.113 862.392 284.38 862.392 282.38C862.392 281.847 862.692 281.313 863.292 280.78C863.892 280.247 864.526 279.98 865.192 279.98H870.492V265.88C863.826 265.88 858.859 264.447 855.592 261.58C854.526 260.647 853.592 259.213 852.792 257.28ZM879.592 257.18C881.592 257.447 883.559 257.713 885.492 257.98C887.492 258.18 889.392 258.28 891.192 258.28C891.992 258.28 892.859 258.18 893.792 257.98C894.726 257.713 895.559 257.447 896.292 257.18L901.492 265.78V304.18C901.492 307.247 903.092 310.68 906.292 314.48C909.159 317.88 912.559 321.18 916.492 324.38L913.292 324.58C911.759 324.58 907.959 322.247 901.892 317.58C895.092 312.38 891.692 308.013 891.692 304.48L891.792 265.88C888.259 265.08 885.359 263.78 883.092 261.98C881.759 260.913 880.592 259.313 879.592 257.18ZM929.82 287.68C929.354 289.147 928.52 290.38 927.32 291.38C926.854 291.78 925.754 292.513 924.02 293.58C926.22 297.18 929.487 301.347 933.82 306.08C937.554 310.147 941.087 313.813 944.42 317.08C944.42 317.48 944.187 317.947 943.72 318.48C943.587 318.613 943.354 318.813 943.02 319.08C942.887 319.08 941.02 317.713 937.42 314.98C933.82 312.313 931.82 310.78 931.42 310.38C927.887 307.313 924.354 304.213 920.82 301.08C916.82 297.48 914.054 294.447 912.52 291.98C911.454 290.247 910.787 288.913 910.52 287.98C910.32 287.047 910.22 285.647 910.22 283.78C910.22 282.38 910.62 281.213 911.42 280.28C912.22 279.347 913.42 278.88 915.02 278.88C915.82 278.88 916.854 279.38 918.12 280.38C919.454 281.313 920.254 281.78 920.52 281.78C920.587 281.713 920.687 281.58 920.82 281.38C920.954 281.18 921.02 280.913 921.02 280.58V265.78C912.154 265.78 906.12 263.847 902.92 259.98C902.387 259.38 901.92 258.48 901.52 257.28C903.454 257.613 905.387 257.913 907.32 258.18C909.254 258.447 911.154 258.58 913.02 258.58C914.954 258.58 916.987 258.447 919.12 258.18C921.32 257.847 923.287 257.513 925.02 257.18L930.22 265.78V283.28C930.22 284.08 930.187 284.88 930.12 285.68C930.054 286.48 929.954 287.147 929.82 287.68Z" fill="#4A6453"/>
<path d="M49.5 145.48C54.34 153.4 61.5266 162.567 71.06 172.98C79.2733 181.927 87.0466 189.993 94.38 197.18C94.38 198.06 93.8666 199.087 92.84 200.26C92.5466 200.553 92.0333 200.993 91.3 201.58C91.0066 201.58 86.9 198.573 78.98 192.56C71.06 186.693 66.66 183.32 65.78 182.44C58.0066 175.693 50.2333 168.873 42.46 161.98C33.66 154.06 27.5733 147.387 24.2 141.96C21.8533 138.147 20.3866 135.213 19.8 133.16C19.36 131.107 19.14 128.027 19.14 123.92C19.14 120.84 20.02 118.273 21.78 116.22C23.54 114.167 26.18 113.14 29.7 113.14C31.46 113.14 33.7333 114.24 36.52 116.44C39.4533 118.493 41.2133 119.52 41.8 119.52C42.5333 119.227 42.9733 119.007 43.12 118.86C43.8533 118.273 44.22 117.613 44.22 116.88V84.32C30.8733 84.32 20.24 82.34 12.32 78.38C7.47997 76.0333 3.3733 71.78 -2.99066e-05 65.62C4.2533 66.3533 8.50664 67.0133 12.76 67.6C17.0133 68.1867 21.1933 68.48 25.3 68.48C29.5533 68.48 34.1 68.1867 38.94 67.6C43.9266 66.8667 48.3266 66.1333 52.14 65.4L63.14 84.32V122.82C66.66 123.847 69.2266 124.507 70.84 124.8C72.6 124.947 75.46 125.02 79.42 125.02C82.2066 125.02 86.68 124.287 92.84 122.82C99 121.207 102.08 119.667 102.08 118.2V84.32C88.44 84.32 77.7333 81.1667 69.96 74.86C67.4666 72.8067 64.9733 69.6533 62.48 65.4C65.8533 66.1333 69.3 66.7933 72.82 67.38C76.34 67.9667 80.2266 68.26 84.48 68.26C88.1466 68.26 92.5466 67.9667 97.68 67.38C102.813 66.7933 107.287 66.1333 111.1 65.4L122.76 84.32V168.8C122.76 175.547 126.28 183.1 133.32 191.46C139.627 198.94 147.033 206.2 155.54 213.24L149.38 213.68C146.153 213.68 137.94 208.547 124.74 198.28C109.927 186.84 102.52 177.233 102.52 169.46V146.58V139.32C99.1466 141.08 95.9933 142.253 93.06 142.84C90.2733 143.28 86.7533 143.5 82.5 143.5C78.8333 143.5 75.1666 142.327 71.5 139.98C69.74 138.807 66.66 136.313 62.26 132.5C60.2066 135.58 58.3 138 56.54 139.76C54.34 142.107 51.9933 144.013 49.5 145.48ZM92.3261 195.86C98.9261 188.82 106.186 185.3 114.106 185.3C120.999 185.3 127.159 187.94 132.586 193.22C137.866 198.647 140.506 204.513 140.506 210.82C140.506 216.833 137.939 222.26 132.806 227.1C127.526 232.087 120.779 234.58 112.566 234.58C103.766 234.58 94.3794 231.793 84.4061 226.22C74.4327 220.793 63.9461 213.093 52.9461 203.12L59.3261 196.74C67.2461 204.66 75.2394 210.893 83.3061 215.44C91.3727 219.987 97.9727 222.26 103.106 222.26C109.706 222.26 115.719 220.06 121.146 215.66C125.839 211.847 128.186 208.107 128.186 204.44C128.186 199.013 126.719 196.3 123.786 196.3C122.319 196.3 119.899 197.62 116.526 200.26C113.886 202.46 110.733 205.467 107.066 209.28L92.3261 195.86ZM216.795 84.32V109.84C216.795 112.187 216.428 113.727 215.695 114.46C214.961 115.193 213.275 115.56 210.635 115.56H184.015C179.175 115.56 175.215 117.027 172.135 119.96C169.201 122.747 167.735 126.34 167.735 130.74C167.735 134.553 170.155 137.78 174.995 140.42C179.981 143.06 185.848 144.38 192.595 144.38C193.475 143.793 194.061 143.427 194.355 143.28C195.381 142.547 195.895 141.96 195.895 141.52C195.895 141.227 195.235 139.467 193.915 136.24C193.328 134.773 193.035 133.82 193.035 133.38C193.035 131.62 193.768 130.227 195.235 129.2C196.848 128.027 198.828 127.44 201.175 127.44C204.401 127.44 208.875 129.713 214.595 134.26C220.461 138.66 223.395 142.18 223.395 144.82C223.395 149.073 220.535 152.373 214.815 154.72L214.375 156.48C214.375 159.413 216.428 163.96 220.535 170.12C223.028 174.08 226.988 178.773 232.415 184.2C234.028 185.813 236.228 187.94 239.015 190.58L233.735 194.32C229.921 191.827 226.988 189.847 224.935 188.38C218.775 183.833 214.155 179.947 211.075 176.72C208.141 173.493 205.281 169.607 202.495 165.06C201.615 163.593 200.515 161.687 199.195 159.34C198.755 159.633 198.168 159.927 197.435 160.22C196.848 160.513 195.895 160.66 194.575 160.66C193.108 160.66 191.055 160.293 188.415 159.56C185.921 158.68 183.135 157.433 180.055 155.82C172.135 151.567 165.315 145.993 159.595 139.1C153.875 132.207 151.015 125.827 151.015 119.96C151.015 105.293 159.741 97.96 177.195 97.96H197.875V84.32H160.255C147.641 84.32 137.888 81.1667 130.995 74.86C128.795 72.8067 126.668 69.7267 124.615 65.62C129.308 66.3533 134.001 67.0133 138.695 67.6C149.548 68.7733 161.281 69.36 173.895 69.36C177.708 69.36 182.328 68.9933 187.755 68.26C193.181 67.38 198.755 66.4267 204.475 65.4L216.795 84.32ZM265.786 168.8C265.786 175.547 269.306 183.1 276.346 191.46C282.652 198.94 289.986 206.2 298.346 213.24L292.186 213.68C288.959 213.68 280.819 208.547 267.766 198.28C253.099 186.84 245.766 177.233 245.766 169.46V84.32C234.472 82.12 226.259 77.3533 221.126 70.02C220.392 68.8467 219.586 67.3067 218.706 65.4C220.906 65.9867 222.592 66.3533 223.766 66.5C230.659 67.6733 236.232 68.26 240.486 68.26C242.392 68.26 244.739 67.9667 247.526 67.38C250.312 66.7933 252.806 66.1333 255.006 65.4L265.786 84.32V168.8ZM357.849 84.32C346.849 84.32 337.609 81.1667 330.129 74.86C327.636 72.8067 324.996 69.6533 322.209 65.4C323.236 65.5467 327.196 66.1333 334.089 67.16C340.982 68.04 346.702 68.48 351.249 68.48C354.329 68.48 357.262 68.1867 360.049 67.6C362.836 66.8667 365.036 66.1333 366.649 65.4L378.089 84.32V168.8C378.089 175.547 381.609 183.1 388.649 191.46C394.956 198.94 402.436 206.2 411.089 213.24L404.049 213.68C400.822 213.68 392.756 208.547 379.849 198.28C365.476 186.84 358.289 177.233 358.289 169.46V143.72H323.089V153.62C323.089 156.847 321.182 158.46 317.369 158.46C314.289 158.46 309.082 154.647 301.749 147.02C294.562 139.247 290.969 133.453 290.969 129.64C290.969 128.467 291.482 127.367 292.509 126.34C293.536 125.313 294.856 124.8 296.469 124.8H302.849V84.32C291.702 84.32 282.829 81.1667 276.229 74.86C274.029 72.8067 271.829 69.6533 269.629 65.4C273.149 65.9867 277.329 66.6467 282.169 67.38C287.009 68.1133 291.702 68.48 296.249 68.48C300.649 68.48 304.609 67.9667 308.129 66.94C309.302 66.6467 310.622 66.1333 312.089 65.4L323.089 84.32V125.24H357.849V84.32ZM424.77 168.8C424.77 175.547 428.29 183.1 435.33 191.46C441.637 198.94 448.97 206.2 457.33 213.24L451.17 213.68C447.943 213.68 439.803 208.547 426.75 198.28C412.083 186.84 404.75 177.233 404.75 169.46V84.32C393.457 82.12 385.243 77.3533 380.11 70.02C379.377 68.8467 378.57 67.3067 377.69 65.4C379.89 65.9867 381.577 66.3533 382.75 66.5C389.643 67.6733 395.217 68.26 399.47 68.26C401.377 68.26 403.723 67.9667 406.51 67.38C409.297 66.7933 411.79 66.1333 413.99 65.4L424.77 84.32V168.8ZM519.473 65.4L530.473 84.32V132.06C530.473 136.753 532.6 139.1 536.853 139.1C540.08 139.1 544.48 137.34 550.053 133.82C555.773 130.3 562.007 125.313 568.753 118.86V144.16C558.78 151.053 550.86 154.5 544.993 154.5C538.687 154.5 531.5 151.42 523.433 145.26C514.633 138.513 510.233 131.473 510.233 124.14V84.32C507.887 83.5867 506.127 83.0733 504.953 82.78C500.993 81.46 498.133 80.2867 496.373 79.26C492.56 76.9133 489.48 74.3467 487.133 71.56C485.813 69.9467 484.64 67.8933 483.613 65.4C487.72 66.1333 491.827 66.8667 495.933 67.6C500.04 68.1867 503.56 68.48 506.493 68.48C509.72 68.48 512.873 67.9667 515.953 66.94C516.833 66.6467 518.007 66.1333 519.473 65.4ZM650.016 84.32H578.516C557.836 84.32 544.342 79.9933 538.036 71.34C537.009 69.8733 536.202 67.8933 535.616 65.4C541.776 66.28 546.616 66.8667 550.136 67.16C560.989 68.3333 569.642 68.92 576.096 68.92C583.722 68.92 599.489 68.3333 623.396 67.16C635.276 66.5733 647.082 65.9867 658.816 65.4L670.696 84.32V168.8C670.696 175.547 674.216 183.1 681.256 191.46C687.562 198.94 694.896 206.2 703.256 213.24L696.216 213.68C692.989 213.68 684.922 208.547 672.016 198.28C657.642 186.84 650.456 177.233 650.456 169.46V118.42C648.989 117.98 647.376 117.76 645.616 117.76C639.749 117.76 634.322 119.887 629.336 124.14C624.496 128.393 620.462 135.067 617.236 144.16L600.736 133.16C601.029 131.84 601.616 130.007 602.496 127.66C603.522 125.313 604.402 123.407 605.136 121.94C602.202 117.247 597.729 114.9 591.716 114.9C586.582 114.9 582.329 116.953 578.956 121.06C575.729 125.02 574.116 129.933 574.116 135.8C574.116 142.4 576.536 149.293 581.376 156.48C585.629 162.787 592.229 170.12 601.176 178.48L594.796 184.86C580.569 171.807 570.449 160.44 564.436 150.76C559.156 142.253 556.516 134.187 556.516 126.56C556.516 118.347 559.229 111.307 564.656 105.44C570.229 99.4267 576.609 96.42 583.796 96.42C592.449 96.42 601.249 102.36 610.196 114.24C613.422 109.987 616.869 106.76 620.536 104.56C624.349 102.213 627.869 101.04 631.096 101.04C633.736 101.04 637.036 101.92 640.996 103.68C644.956 105.44 647.962 107.347 650.016 109.4V84.32ZM717.172 168.8C717.172 175.547 720.692 183.1 727.732 191.46C734.039 198.94 741.372 206.2 749.732 213.24L743.572 213.68C740.346 213.68 732.206 208.547 719.152 198.28C704.486 186.84 697.152 177.233 697.152 169.46V84.32C685.859 82.12 677.646 77.3533 672.512 70.02C671.779 68.8467 670.972 67.3067 670.092 65.4C672.292 65.9867 673.979 66.3533 675.152 66.5C682.046 67.6733 687.619 68.26 691.872 68.26C693.779 68.26 696.126 67.9667 698.912 67.38C701.699 66.7933 704.192 66.1333 706.392 65.4L717.172 84.32V168.8ZM769.636 84.32H754.456C743.896 84.32 735.169 81.1667 728.276 74.86C726.076 72.8067 723.656 69.6533 721.016 65.4C722.776 65.84 724.462 66.2067 726.076 66.5C732.969 67.82 739.569 68.48 745.876 68.48C749.542 68.48 752.769 67.9667 755.556 66.94C756.436 66.6467 757.462 66.1333 758.636 65.4L769.636 84.32ZM804.616 134.04H775.356C772.716 134.04 771.396 135.433 771.396 138.22V146.14C771.396 149.513 769.122 151.2 764.576 151.2C761.789 151.2 757.389 147.313 751.376 139.54C745.362 131.767 742.356 125.753 742.356 121.5C742.356 120.18 742.942 118.86 744.116 117.54C745.289 116.22 746.609 115.56 748.076 115.56H804.616V134.04ZM869.225 114.24C869.225 117.467 857.932 121.647 835.345 126.78C824.785 129.127 817.525 131.84 813.565 134.92C809.752 138 807.845 142.767 807.845 149.22C807.845 153.767 809.972 157.8 814.225 161.32C818.625 164.693 823.685 166.38 829.405 166.38C835.125 166.38 841.945 164.547 849.865 160.88C856.465 157.8 863.432 153.62 870.765 148.34L880.665 167.7C875.532 171.66 869.592 175.033 862.845 177.82C856.245 180.46 850.158 181.78 844.585 181.78C830.505 181.78 818.038 177.087 807.185 167.7C796.478 158.167 791.125 147.607 791.125 136.02C791.125 129.273 792.958 123.847 796.625 119.74C801.318 114.46 808.725 110.94 818.845 109.18C829.112 107.273 836.665 105.44 841.505 103.68C846.492 101.92 848.985 99.72 848.985 97.08V84.76C841.505 84.6133 833.878 84.54 826.105 84.54C818.478 84.3933 814.152 84.32 813.125 84.32C792.445 84.32 778.952 79.9933 772.645 71.34C771.618 69.8733 770.812 67.8933 770.225 65.4C776.385 66.28 781.225 66.8667 784.745 67.16C795.598 68.3333 804.252 68.92 810.705 68.92C816.278 68.92 823.465 68.6267 832.265 68.04C841.065 67.3067 849.572 66.5 857.785 65.62L869.225 84.32V114.24ZM966.668 145.48C971.508 153.4 978.695 162.567 988.228 172.98C996.441 181.927 1004.21 189.993 1011.55 197.18C1011.55 198.06 1011.03 199.087 1010.01 200.26C1009.71 200.553 1009.2 200.993 1008.47 201.58C1008.17 201.58 1004.07 198.573 996.148 192.56C988.228 186.693 983.828 183.32 982.948 182.44C975.175 175.693 967.401 168.873 959.628 161.98C950.828 154.06 944.741 147.387 941.368 141.96C939.021 138.147 937.555 135.213 936.968 133.16C936.528 131.107 936.308 128.027 936.308 123.92C936.308 120.84 937.188 118.273 938.948 116.22C940.708 114.167 943.348 113.14 946.868 113.14C948.628 113.14 950.901 114.24 953.688 116.44C956.621 118.493 958.381 119.52 958.968 119.52C959.701 119.227 960.141 119.007 960.288 118.86C961.021 118.273 961.388 117.613 961.388 116.88V84.32H952.808C940.048 84.32 930.295 81.1667 923.548 74.86C921.348 72.8067 919.221 69.6533 917.168 65.4C919.515 65.9867 921.421 66.3533 922.888 66.5C930.955 67.82 937.775 68.48 943.348 68.48C948.188 68.48 953.908 67.9667 960.508 66.94C962.708 66.6467 965.568 66.1333 969.088 65.4L980.308 84.32V122.82C983.828 123.847 986.395 124.507 988.008 124.8C989.768 124.947 992.628 125.02 996.588 125.02C999.228 125.02 1002.97 124.433 1007.81 123.26C1012.65 121.94 1018.37 119.96 1024.97 117.32V136.9C1021.74 138.807 1017.63 140.42 1012.65 141.74C1007.81 142.913 1003.48 143.5 999.668 143.5C996.001 143.5 992.335 142.327 988.668 139.98C986.908 138.807 983.828 136.313 979.428 132.5C977.375 135.58 975.468 138 973.708 139.76C971.508 142.107 969.161 144.013 966.668 145.48ZM1089.87 114.24C1089.87 117.467 1078.58 121.647 1055.99 126.78C1045.43 129.127 1038.17 131.84 1034.21 134.92C1030.4 138 1028.49 142.767 1028.49 149.22C1028.49 153.767 1030.62 157.8 1034.87 161.32C1039.27 164.693 1044.33 166.38 1050.05 166.38C1055.77 166.38 1062.59 164.547 1070.51 160.88C1077.11 157.8 1084.08 153.62 1091.41 148.34L1101.31 167.7C1096.18 171.66 1090.24 175.033 1083.49 177.82C1076.89 180.46 1070.8 181.78 1065.23 181.78C1051.15 181.78 1038.68 177.087 1027.83 167.7C1017.12 158.167 1011.77 147.607 1011.77 136.02C1011.77 129.273 1013.6 123.847 1017.27 119.74C1021.96 114.46 1029.37 110.94 1039.49 109.18C1049.76 107.273 1057.31 105.44 1062.15 103.68C1067.14 101.92 1069.63 99.72 1069.63 97.08V84.76C1062.15 84.6133 1054.52 84.54 1046.75 84.54C1039.12 84.3933 1034.8 84.32 1033.77 84.32C1013.09 84.32 999.596 79.9933 993.29 71.34C992.263 69.8733 991.456 67.8933 990.87 65.4C997.03 66.28 1001.87 66.8667 1005.39 67.16C1016.24 68.3333 1024.9 68.92 1031.35 68.92C1036.92 68.92 1044.11 68.6267 1052.91 68.04C1061.71 67.3067 1070.22 66.5 1078.43 65.62L1089.87 84.32V114.24ZM1129.67 168.8C1129.67 175.547 1133.19 183.1 1140.23 191.46C1146.54 198.94 1153.87 206.2 1162.23 213.24L1156.07 213.68C1152.85 213.68 1144.71 208.547 1131.65 198.28C1116.99 186.84 1109.65 177.233 1109.65 169.46V84.32C1098.36 82.12 1090.15 77.3533 1085.01 70.02C1084.28 68.8467 1083.47 67.3067 1082.59 65.4C1084.79 65.9867 1086.48 66.3533 1087.65 66.5C1094.55 67.6733 1100.12 68.26 1104.37 68.26C1106.28 68.26 1108.63 67.9667 1111.41 67.38C1114.2 66.7933 1116.69 66.1333 1118.89 65.4L1129.67 84.32V168.8ZM1113.72 70.9C1108.14 62.8333 1102.79 55.6467 1097.66 49.34C1093.11 43.7667 1089.08 39.2933 1085.56 35.92C1082.04 32.4 1078.22 30.64 1074.12 30.64C1071.77 30.64 1069.5 30.86 1067.3 31.3C1065.1 31.74 1063.12 32.2533 1061.36 32.84C1057.1 25.0667 1054.46 20.2267 1053.44 18.32C1052.41 16.2667 1051.9 14.58 1051.9 13.26C1051.9 11.3533 1053 10.1067 1055.2 9.51999C1057.25 8.93332 1060.11 8.63999 1063.78 8.63999C1066.27 8.63999 1069.13 9.15333 1072.36 10.18C1075.44 11.2067 1078.74 13.3333 1082.26 16.56C1087.24 20.96 1093.04 27.7067 1099.64 36.8C1106.24 45.7467 1112.98 56.0867 1119.88 67.82L1113.72 70.9ZM1197.92 132.5C1196.9 135.727 1195.06 138.44 1192.42 140.64C1191.4 141.52 1188.98 143.133 1185.16 145.48C1190 153.4 1197.19 162.567 1206.72 172.98C1214.94 181.927 1222.71 189.993 1230.04 197.18C1230.04 198.06 1229.53 199.087 1228.5 200.26C1228.21 200.553 1227.7 200.993 1226.96 201.58C1226.67 201.58 1222.56 198.573 1214.64 192.56C1206.72 186.693 1202.32 183.32 1201.44 182.44C1193.67 175.693 1185.9 168.873 1178.12 161.98C1169.32 154.06 1163.24 147.387 1159.86 141.96C1157.52 138.147 1156.05 135.213 1155.46 133.16C1155.02 131.107 1154.8 128.027 1154.8 123.92C1154.8 120.84 1155.68 118.273 1157.44 116.22C1159.2 114.167 1161.84 113.14 1165.36 113.14C1167.12 113.14 1169.4 114.24 1172.18 116.44C1175.12 118.493 1176.88 119.52 1177.46 119.52C1177.61 119.373 1177.83 119.08 1178.12 118.64C1178.42 118.2 1178.56 117.613 1178.56 116.88V84.32C1159.06 84.32 1145.78 80.0667 1138.74 71.56C1137.57 70.24 1136.54 68.26 1135.66 65.62C1139.92 66.3533 1144.17 67.0133 1148.42 67.6C1152.68 68.1867 1156.86 68.48 1160.96 68.48C1165.22 68.48 1169.69 68.1867 1174.38 67.6C1179.22 66.8667 1183.55 66.1333 1187.36 65.4L1198.8 84.32V122.82C1198.8 124.58 1198.73 126.34 1198.58 128.1C1198.44 129.86 1198.22 131.327 1197.92 132.5Z" fill="#33CC33"/>
</svg>
